<svg xmlns="http://www.w3.org/2000/svg" viewBox="0 0 24.37 24.37"><title>transparent</title><g><path d="M12.18,0A12.19,12.19,0,1,0,24.37,12.18,12.2,12.2,0,0,0,12.18,0Zm7.87,16.91v2.48q-.32.34-.66.66H16.9v1.7a10.47,10.47,0,0,1-3.14,1V20.05H10.61v2.69a10.62,10.62,0,0,1-3.15-1v-1.7H5q-.35-.32-.66-.66V16.91H2.61a10.6,10.6,0,0,1-1-3.15H4.32V10.61H1.63a10.6,10.6,0,0,1,1-3.15H4.32V5q.31-.35.66-.66H7.46V2.61a10.6,10.6,0,0,1,3.15-1V4.32h3.15V1.63a10.45,10.45,0,0,1,3.14,1V4.32h2.49q.34.31.66.66V7.46h1.7a10.62,10.62,0,0,1,1,3.15H20.05v3.15h2.69a10.62,10.62,0,0,1-1,3.15Z"/><rect x="13.76" y="4.32" width="3.15" height="3.15"/><rect x="16.9" y="7.46" width="3.15" height="3.15"/><rect x="7.46" y="4.32" width="3.15" height="3.15"/><rect x="10.61" y="7.46" width="3.15" height="3.15"/><rect x="13.76" y="10.61" width="3.15" height="3.15"/><rect x="16.9" y="13.76" width="3.15" height="3.15"/><rect x="4.32" y="7.46" width="3.15" height="3.15"/><rect x="7.46" y="10.61" width="3.15" height="3.15"/><rect x="10.61" y="13.76" width="3.15" height="3.15"/><rect x="13.76" y="16.91" width="3.15" height="3.15"/><rect x="4.32" y="13.76" width="3.15" height="3.15"/><rect x="7.46" y="16.91" width="3.15" height="3.15"/></g></svg>