<svg xmlns="http://www.w3.org/2000/svg" viewBox="0 0 24.37 24.37"><title>dimmed</title><g><path d="M12.18,0A12.19,12.19,0,1,0,24.37,12.18,12.2,12.2,0,0,0,12.18,0ZM9.63,22.55a10.9,10.9,0,0,1-2.63-1l15.75-7.8a10.72,10.72,0,0,1-.76,2.7ZM22.14,8.34l-19,9.44a11.19,11.19,0,0,1-.92-1.87l19-9.43A10.82,10.82,0,0,1,22.14,8.34ZM20.3,5.26,1.75,14.45a10.67,10.67,0,0,1-.25-2.2L18.69,3.73A10.13,10.13,0,0,1,20.3,5.26ZM14.56,1.78a10.62,10.62,0,0,1,2.68,1L1.65,10.5a10.52,10.52,0,0,1,.82-2.73Zm-2.87-.25L4,5.34A10.66,10.66,0,0,1,11.69,1.53ZM4,19,22.59,9.79a11.32,11.32,0,0,1,.27,2.2L5.57,20.56A11,11,0,0,1,4,19Zm8.39,3.84,8.19-4.06A10.67,10.67,0,0,1,12.37,22.86Z"/></g></svg>